<mxfile host="app.diagrams.net" modified="2022-09-07T08:50:37.532Z" agent="5.0 (Windows NT 10.0; Win64; x64) AppleWebKit/537.36 (KHTML, like Gecko) Chrome/96.0.4664.45 Safari/537.36" etag="P6SIHhccpzRejgDQZC0j" version="20.2.8" type="github">
  <diagram id="RViMf1zcDWkRPvXwu7-Y" name="Page-1">
    <mxGraphModel dx="1422" dy="762" grid="1" gridSize="10" guides="1" tooltips="1" connect="1" arrows="1" fold="1" page="1" pageScale="1" pageWidth="827" pageHeight="1169" math="0" shadow="0">
      <root>
        <mxCell id="0" />
        <mxCell id="1" parent="0" />
        <mxCell id="dbmJ3tBjeZYCcRXgSya4-50" style="edgeStyle=orthogonalEdgeStyle;rounded=0;orthogonalLoop=1;jettySize=auto;html=1;fontSize=16;" edge="1" parent="1" source="dbmJ3tBjeZYCcRXgSya4-7">
          <mxGeometry relative="1" as="geometry">
            <mxPoint x="1020" y="260" as="targetPoint" />
          </mxGeometry>
        </mxCell>
        <mxCell id="dbmJ3tBjeZYCcRXgSya4-7" value="" style="rounded=0;whiteSpace=wrap;html=1;" vertex="1" parent="1">
          <mxGeometry x="500" y="120" width="280" height="280" as="geometry" />
        </mxCell>
        <mxCell id="dbmJ3tBjeZYCcRXgSya4-9" value="" style="shape=trapezoid;perimeter=trapezoidPerimeter;whiteSpace=wrap;html=1;fixedSize=1;rotation=-5;" vertex="1" parent="1">
          <mxGeometry x="560" y="190" width="120" height="140" as="geometry" />
        </mxCell>
        <mxCell id="dbmJ3tBjeZYCcRXgSya4-10" value="" style="rounded=0;whiteSpace=wrap;html=1;fillColor=none;strokeColor=#FF3333;rotation=355;" vertex="1" parent="1">
          <mxGeometry x="560" y="190" width="120" height="140" as="geometry" />
        </mxCell>
        <mxCell id="dbmJ3tBjeZYCcRXgSya4-11" value="" style="endArrow=none;html=1;rounded=0;" edge="1" parent="1">
          <mxGeometry width="50" height="50" relative="1" as="geometry">
            <mxPoint x="540" y="337" as="sourcePoint" />
            <mxPoint x="720" y="337" as="targetPoint" />
          </mxGeometry>
        </mxCell>
        <mxCell id="dbmJ3tBjeZYCcRXgSya4-17" value="&lt;font style=&quot;font-size: 16px;&quot;&gt;origin images：&lt;br&gt;width，heigh=4500*4500&lt;/font&gt;" style="text;html=1;strokeColor=none;fillColor=none;align=center;verticalAlign=middle;whiteSpace=wrap;rounded=0;" vertex="1" parent="1">
          <mxGeometry x="55" y="80" width="230" height="30" as="geometry" />
        </mxCell>
        <mxCell id="dbmJ3tBjeZYCcRXgSya4-25" value="&lt;font style=&quot;font-size: 16px;&quot;&gt;image processing&lt;/font&gt;" style="text;html=1;strokeColor=none;fillColor=none;align=center;verticalAlign=middle;whiteSpace=wrap;rounded=0;" vertex="1" parent="1">
          <mxGeometry x="510" y="80" width="160" height="30" as="geometry" />
        </mxCell>
        <mxCell id="dbmJ3tBjeZYCcRXgSya4-49" style="edgeStyle=orthogonalEdgeStyle;rounded=0;orthogonalLoop=1;jettySize=auto;html=1;entryX=0;entryY=0.5;entryDx=0;entryDy=0;fontSize=16;" edge="1" parent="1" source="dbmJ3tBjeZYCcRXgSya4-30" target="dbmJ3tBjeZYCcRXgSya4-7">
          <mxGeometry relative="1" as="geometry" />
        </mxCell>
        <mxCell id="dbmJ3tBjeZYCcRXgSya4-30" value="" style="rounded=0;whiteSpace=wrap;html=1;" vertex="1" parent="1">
          <mxGeometry x="55" y="120" width="280" height="280" as="geometry" />
        </mxCell>
        <mxCell id="dbmJ3tBjeZYCcRXgSya4-31" value="" style="shape=trapezoid;perimeter=trapezoidPerimeter;whiteSpace=wrap;html=1;fixedSize=1;rotation=-5;" vertex="1" parent="1">
          <mxGeometry x="115" y="190" width="120" height="140" as="geometry" />
        </mxCell>
        <mxCell id="dbmJ3tBjeZYCcRXgSya4-34" value="" style="rounded=0;whiteSpace=wrap;html=1;" vertex="1" parent="1">
          <mxGeometry x="1022.5" y="152.5" width="235" height="235" as="geometry" />
        </mxCell>
        <mxCell id="dbmJ3tBjeZYCcRXgSya4-35" value="" style="shape=trapezoid;perimeter=trapezoidPerimeter;whiteSpace=wrap;html=1;fixedSize=1;rotation=0;" vertex="1" parent="1">
          <mxGeometry x="1080" y="200" width="120" height="140" as="geometry" />
        </mxCell>
        <mxCell id="dbmJ3tBjeZYCcRXgSya4-36" value="" style="rounded=0;whiteSpace=wrap;html=1;fillColor=none;strokeColor=#FF3333;rotation=0;" vertex="1" parent="1">
          <mxGeometry x="1080" y="200" width="120" height="140" as="geometry" />
        </mxCell>
        <mxCell id="dbmJ3tBjeZYCcRXgSya4-38" value="&lt;font style=&quot;font-size: 16px;&quot;&gt;origin images：&lt;br&gt;width，heigh=3000*3000&lt;/font&gt;" style="text;html=1;strokeColor=none;fillColor=none;align=center;verticalAlign=middle;whiteSpace=wrap;rounded=0;" vertex="1" parent="1">
          <mxGeometry x="1010" y="90" width="230" height="30" as="geometry" />
        </mxCell>
        <mxCell id="dbmJ3tBjeZYCcRXgSya4-39" value="" style="ellipse;whiteSpace=wrap;html=1;aspect=fixed;strokeColor=#FF3333;fontSize=16;fillColor=#FF3333;" vertex="1" parent="1">
          <mxGeometry x="615" y="255" width="10" height="10" as="geometry" />
        </mxCell>
        <mxCell id="dbmJ3tBjeZYCcRXgSya4-42" value="angle：alpha" style="text;html=1;strokeColor=none;fillColor=none;align=center;verticalAlign=middle;whiteSpace=wrap;rounded=0;fontSize=16;" vertex="1" parent="1">
          <mxGeometry x="635" y="350" width="140" height="30" as="geometry" />
        </mxCell>
        <mxCell id="dbmJ3tBjeZYCcRXgSya4-43" value="center coordinate:(x,y)" style="text;html=1;strokeColor=none;fillColor=none;align=center;verticalAlign=middle;whiteSpace=wrap;rounded=0;fontSize=16;" vertex="1" parent="1">
          <mxGeometry x="585" y="140" width="190" height="35" as="geometry" />
        </mxCell>
        <mxCell id="dbmJ3tBjeZYCcRXgSya4-45" value="" style="endArrow=classic;html=1;rounded=0;fontSize=16;" edge="1" parent="1" source="dbmJ3tBjeZYCcRXgSya4-43">
          <mxGeometry width="50" height="50" relative="1" as="geometry">
            <mxPoint x="650" y="220" as="sourcePoint" />
            <mxPoint x="630" y="240" as="targetPoint" />
            <Array as="points" />
          </mxGeometry>
        </mxCell>
        <mxCell id="dbmJ3tBjeZYCcRXgSya4-48" value="" style="endArrow=classic;html=1;rounded=0;fontSize=16;exitX=0.5;exitY=0;exitDx=0;exitDy=0;" edge="1" parent="1" source="dbmJ3tBjeZYCcRXgSya4-42">
          <mxGeometry width="50" height="50" relative="1" as="geometry">
            <mxPoint x="670" y="410" as="sourcePoint" />
            <mxPoint x="670" y="330" as="targetPoint" />
          </mxGeometry>
        </mxCell>
        <mxCell id="dbmJ3tBjeZYCcRXgSya4-51" value="" style="rounded=1;whiteSpace=wrap;html=1;strokeColor=#FF00FF;fontSize=16;fillColor=none;shadow=0;" vertex="1" parent="1">
          <mxGeometry x="450" y="50" width="360" height="405" as="geometry" />
        </mxCell>
        <mxCell id="dbmJ3tBjeZYCcRXgSya4-52" value="图像算法：&lt;br&gt;&lt;span style=&quot;white-space: pre;&quot;&gt;	&lt;/span&gt;输出物品的中心点坐标&lt;br&gt;&lt;span style=&quot;white-space: pre;&quot;&gt;	&lt;/span&gt;外接矩形与水平方向的夹角" style="text;html=1;strokeColor=none;fillColor=none;align=left;verticalAlign=middle;whiteSpace=wrap;rounded=0;shadow=0;fontSize=16;" vertex="1" parent="1">
          <mxGeometry x="507" y="490" width="320" height="30" as="geometry" />
        </mxCell>
        <mxCell id="dbmJ3tBjeZYCcRXgSya4-54" value="rotate acoording ro alpha&lt;br&gt;crop according to coordinate&lt;br&gt;" style="text;html=1;strokeColor=none;fillColor=none;align=left;verticalAlign=middle;whiteSpace=wrap;rounded=0;shadow=0;fontSize=16;" vertex="1" parent="1">
          <mxGeometry x="820" y="220" width="230" height="30" as="geometry" />
        </mxCell>
      </root>
    </mxGraphModel>
  </diagram>
</mxfile>
